<svg xmlns="http://www.w3.org/2000/svg" width="90" height="21" viewBox="0 0 90 21" fill="none">
<path fill-rule="evenodd" clip-rule="evenodd" d="M88.1748 20.9786L86.4769 14.101H81.1271L79.274 20.9786H77.6227L83.1261 0.131585H84.6331L90 20.9786M72.6686 18.0761C72.0509 19.118 71.2501 19.9152 70.3049 20.4109C69.8532 20.6466 69.369 20.8149 68.8553 20.9051C68.8553 20.9051 67.9458 20.9908 67.8884 20.9908H66.2417H62.582V0.143825H67.8899C67.9474 0.143825 68.8568 0.220328 68.8568 0.220328C68.8568 0.220328 69.2138 0.296831 69.3861 0.344262C70.755 0.723716 71.8771 1.65093 72.6919 2.99126C73.7705 4.80131 74.3401 7.37333 74.3417 10.5405C74.3401 13.6772 73.7597 16.2492 72.6686 18.0761ZM57.6171 20.9694L55.7702 14.0903H50.4204L48.5611 20.9694H46.9051L52.2658 0.123934H53.7588L59.2887 20.9694H57.6171ZM43.1803 15.732C42.9909 16.2415 42.7612 16.7128 42.5113 17.1534C41.2387 19.4256 39.2862 20.9434 37.0405 20.9464C34.9996 20.9449 33.2132 19.7025 31.9452 17.8022C30.685 15.8988 29.9245 13.3207 29.9229 10.464C29.9245 7.61661 30.6865 5.04 31.9452 3.13355C33.2132 1.23169 35.0027 0.00153005 37.0405 0C37.6194 0 38.1812 0.0963934 38.7089 0.26776C39.1016 0.400874 39.4787 0.578361 39.8419 0.795628C41.1673 1.61115 42.2615 2.96831 43.0142 4.67126C43.188 5.06448 43.3432 5.4776 43.4798 5.90601C43.6816 6.59607 43.7328 7.27694 43.7328 7.27694H42.1156C42.1156 7.27694 41.83 6.11257 41.6686 5.73005C41.5072 5.34295 41.3225 4.98339 41.113 4.63607C40.0933 2.89027 38.6328 1.87891 37.0405 1.88044C35.5769 1.87891 34.2236 2.77705 33.193 4.33158C32.1656 5.88153 31.5153 8.06645 31.5153 10.461C31.5153 12.8754 32.1656 15.0619 33.1899 16.6087C34.2205 18.1541 35.5785 19.0522 37.0405 19.0522C37.4781 19.0492 37.8894 18.9711 38.3131 18.8151C38.5677 18.7279 38.8206 18.6009 39.0798 18.4326C39.8341 17.9628 40.5216 17.2162 41.0835 16.2675C41.4761 15.6035 42.1063 13.6435 42.1063 13.6435H43.7607C43.7592 13.6466 43.7374 14.2295 43.1803 15.732ZM24.823 20.9786L23.1266 14.101H17.7737L16.0789 20.9786H14.2755L19.6206 0.131585H21.2797L26.6311 20.9786H24.823ZM10.9666 2.04721H10.532C9.95465 2.04874 9.42541 2.18645 8.92411 2.46339C8.87289 2.4894 8.8015 2.53836 8.70372 2.5965C8.32192 2.84284 7.97427 3.18404 7.67163 3.61705V3.61858C7.1874 4.30557 6.8444 5.1165 6.61625 6.22579C6.38656 7.33355 6.28257 8.72437 6.28412 10.5513C6.28257 12.5725 6.17083 14.179 5.88991 15.5224C5.6121 16.8566 5.16046 17.9277 4.53965 18.8227L4.51482 18.8579L4.48999 18.8809C4.35341 19.0721 4.21218 19.242 4.06008 19.4042C3.89867 19.574 3.73105 19.7285 3.56499 19.8678C2.70982 20.5945 1.66066 21 0.524582 21H0V19.0737H0.445429C1.01812 19.0737 1.54891 18.9451 2.0409 18.6927C2.13247 18.6468 2.20852 18.6085 2.27526 18.5672C2.67258 18.3163 3.03109 17.9858 3.33684 17.565C3.81176 16.8765 4.1532 16.0671 4.37359 14.9563C4.60329 13.8378 4.70417 12.4103 4.70417 10.5528C4.70417 8.55301 4.81591 6.95563 5.09838 5.63366C5.37619 4.30251 5.81541 3.24066 6.45019 2.35475C6.59453 2.15126 6.74197 1.97224 6.89562 1.79781C7.06013 1.60962 7.23551 1.45355 7.39537 1.31432C8.27381 0.543169 9.36333 0.120874 10.5335 0.123934H10.9681V2.04721H10.9666ZM81.6253 12.1731H85.9772L83.7935 3.76546L81.6253 12.1731ZM18.2735 12.1731H22.6269L20.4432 3.75934L18.2735 12.1731ZM68.8056 2.16656C68.7156 2.14667 68.624 2.13137 68.5309 2.1176C68.5309 2.1176 68.0157 2.07169 67.8899 2.07169H64.1744V19.0645H67.8899C68.0622 19.0645 68.2345 19.0538 68.3912 19.0369L68.4052 19.0354C69.6499 18.8809 70.6479 18.1679 71.4006 16.8979C72.2542 15.4505 72.7478 13.2824 72.7462 10.5405C72.7478 7.7635 72.2744 5.59388 71.4223 4.18317C70.7534 3.06011 69.8905 2.3976 68.8056 2.16656ZM50.9202 12.1609H55.272L53.0883 3.74863L50.9202 12.1609Z" fill="white"/>
</svg>